<svg xmlns="http://www.w3.org/2000/svg" xmlns:xlink="http://www.w3.org/1999/xlink" id="Layer_1" enable-background="new 0 0 1000 1000" version="1.1" viewBox="0 0 1000 1000" xml:space="preserve"><style type="text/css">.st0{fill:#0078b5}.st1{fill:#fff}</style><title/><g><path d="M500,1000L500,1000C223.9,1000,0,776.1,0,500l0,0C0,223.9,223.9,0,500,0l0,0c276.1,0,500,223.9,500,500l0,0 C1000,776.1,776.1,1000,500,1000z" class="st0"/><g><g><path d="M184.2,387.3h132.9v427.7H184.2V387.3z M250.7,174.7c42.5,0,77,34.5,77,77.1s-34.5,77.1-77,77.1 c-42.6,0-77.1-34.5-77.1-77.1C173.5,209.3,208,174.7,250.7,174.7" class="st1"/><path d="M400.5,387.3H528v58.4h1.8c17.7-33.6,61-69.1,125.8-69.1c134.6,0,159.5,88.6,159.5,203.7v234.7H682.2V607.1 c0-49.7-0.9-113.4-69.1-113.4c-69.2,0-79.8,54-79.8,109.8v211.6H400.5V387.3z" class="st1"/></g></g></g></svg>